<svg xmlns="http://www.w3.org/2000/svg" viewBox="0 0 42.81 20.8"><defs><style>.cls-1{fill:#83ebc3;}.cls-2{fill:#fff;}</style></defs><g id="Calque_2" data-name="Calque 2"><g id="Calque_1-2" data-name="Calque 1"><path class="cls-1" d="M11.88,3.19c0-.22-.11-1.12-.11-1.32a1.27,1.27,0,0,1,.34-.95C12.81.76,16,.25,17,0l.56.05a.86.86,0,0,1,.05.27c0,.22-.18.36-.52.44-2.11.41-3.42.61-4.25.86a2,2,0,0,0-.2.95,3.42,3.42,0,0,0,.16,1h.26c.37,0,1.33-.07,1.85-.07s.58.16.58.38-2.47.54-2.79.61V7.38l.43.29a46.13,46.13,0,0,0,5.49-.41.8.8,0,0,1,.56-.15c.32,0,.54.06.63.18,0,.34-.07.56-.22.65-3,.23-5.33.36-6.89.41-.06,0-.87-.18-.87-.59V4.66a.75.75,0,0,1-.11-.5,1.18,1.18,0,0,1,.11-.56A2.37,2.37,0,0,0,11.88,3.19Z"/><path class="cls-2" d="M20.12,10.25q-.21,0-.21-.18c0-.31,1-2.16,1-2.31s.28-.5.3-.72l.41-1,.33-.78a2.74,2.74,0,0,1,.35-.67q.21,0,.21.21s0,.19,0,.24a.48.48,0,0,0,0,.18l.85,4.74a.22.22,0,0,1-.22.14c-.14,0-.21-.19-.24-.31s-.3-2-.33-2.11a1.1,1.1,0,0,0-.41-.06,1.74,1.74,0,0,0-.92.25l-1,2.4Zm1.38-3a1,1,0,0,1,.38,0H22c.25,0,.47,0,.47-.1,0-.38-.24-1.23-.26-1.47A5.36,5.36,0,0,0,21.5,7.29Z"/><path class="cls-2" d="M24.49,11.26c-.19.14-.59.38-1.19.73-.08,0-.12-.05-.13-.08,0-.63.73-.56,1.12-.91A2.79,2.79,0,0,0,25.5,9.13a2.33,2.33,0,0,0-.4-1A6.28,6.28,0,0,1,23.61,5a1.76,1.76,0,0,1,1.55-1.73c.47.09.94.16,1.16.48v.14A.11.11,0,0,1,26.2,4c-.05,0-.09,0-.14-.09a1.19,1.19,0,0,0-.84-.27.93.93,0,0,0-.58.18A1.34,1.34,0,0,0,24,5.12a3.75,3.75,0,0,0,0,.45,12,12,0,0,0,1.64,2.78,2.48,2.48,0,0,1,.16.88,1.79,1.79,0,0,1-.28,1A4,4,0,0,1,24.49,11.26Z"/><path class="cls-2" d="M30.3,4.29c.1,0,.16,0,.17.13L29.85,6a8.91,8.91,0,0,1-.8,1.5v.26a25.48,25.48,0,0,0,.23,2.65.53.53,0,0,1-.22.12c-.14,0-.21-.21-.21-.44s0-.16,0-.23a1.16,1.16,0,0,0,0-.33c-.09-.94-.14-1.66-.17-2.13A9.18,9.18,0,0,0,27.46,6c-.83-.83-1.26-1.25-1.31-1.29a1.27,1.27,0,0,1-.08-.28c0-.05.13-.07.16-.07l.14,0c.39.45,2,2.08,2.44,2.61.13,0,.19-.14.28-.28a11.65,11.65,0,0,0,1-2.31C30.11,4.33,30.17,4.29,30.3,4.29Z"/><path class="cls-1" d="M.07,12.84a8.52,8.52,0,0,1,.06-1A8.94,8.94,0,0,1,0,10.43,2.65,2.65,0,0,1,.45,8.72c.34,0,.52.21.52.48s-.2.85-.2,1.06a1.09,1.09,0,0,0,0,.26,5.06,5.06,0,0,0,0,.55A9.33,9.33,0,0,0,1,12.73a5.41,5.41,0,0,0,.92.09c.85,0,3.53-.61,4.38-.61a3.77,3.77,0,0,1,.47,0L7,12a4.35,4.35,0,0,1,0-.52c0-.81.27-2.77.25-2.7a.43.43,0,0,0,0,0c0-.17.36-.45.59-.45a.14.14,0,0,1,.16.12,32.87,32.87,0,0,0-.32,4.86c0,.78,0,2,.05,3.64a.48.48,0,0,1-.43.32c-.49,0-.52-2.41-.41-2.21a10.3,10.3,0,0,0,.09-1.17,3.44,3.44,0,0,0-.13-1c-.81.07-4.39.79-5.67.83a1.94,1.94,0,0,0-.22,1s0,.4.07,1.08v.13c0,.29,0,.79,0,1a1.28,1.28,0,0,1-.36,1,.51.51,0,0,1-.49-.56c0-.12.17-.88.17-1.13V16.1C.14,14.39.07,13.31.07,12.84Z"/><path class="cls-2" d="M10.26,18.48c-.32,0-.31,0-1.06-.43a2.89,2.89,0,0,1-.42-1.57,3.65,3.65,0,0,1,.49-1.89A2,2,0,0,1,10.61,14l.67.3c.42.6.93,1.19.93,1.75a2.69,2.69,0,0,1-1.67,2.44A1.26,1.26,0,0,1,10.26,18.48ZM9.19,16.42c0,.85.25,1.73,1.07,1.73s1.53-1.27,1.53-2a2.32,2.32,0,0,0-.08-.58,7.35,7.35,0,0,1-.41-.63,1,1,0,0,0-1-.5,1,1,0,0,0-.3,0C9.53,14.63,9.19,15.51,9.19,16.42Z"/><path class="cls-2" d="M12.61,19c0-.22.17-1.16.51-2.82a27.35,27.35,0,0,1,.67-2.73.21.21,0,0,1,.16-.06l.12,0a15.31,15.31,0,0,0,1.55,3.1.28.28,0,0,0,.11.13,23,23,0,0,0,1.42-2.35l.54-1h.09c.13,0,.21,0,.21.16s.64,5.12.68,5.37q0,.11-.18.21a.23.23,0,0,1-.23-.25L18,16.35c-.1-1-.21-1.81-.31-2.44h0c-.08.21-.4.81-.94,1.83a3.13,3.13,0,0,1-1,1.36l-.1,0c-.28,0-1.1-1.78-1.65-2.85a10,10,0,0,0-.47,1.68l-.33,1.72a5.44,5.44,0,0,1-.33,1.47C12.72,19.13,12.61,19.09,12.61,19Z"/><path class="cls-2" d="M18.93,15.75c0-.1-.05-.52-.05-.61A.57.57,0,0,1,19,14.7c.33-.08,1.82-.32,2.29-.43l.26,0a.59.59,0,0,1,0,.13c0,.1-.08.17-.24.2-1,.19-1.6.29-2,.4a.94.94,0,0,0-.1.45,1.51,1.51,0,0,0,.08.48h.12c.17,0,.62,0,.86,0s.27.08.27.18-1.15.25-1.3.29v1.33l.2.14a20.19,20.19,0,0,0,2.56-.2.41.41,0,0,1,.26-.06c.16,0,.26,0,.3.08s0,.26-.1.3c-1.42.11-2.49.17-3.22.2,0,0-.41-.09-.41-.28V16.44a.37.37,0,0,1-.05-.23.57.57,0,0,1,.05-.26A1.12,1.12,0,0,0,18.93,15.75Z"/><path class="cls-2" d="M29.6,13.52a.21.21,0,0,1,.22.16c-.1.49-.86,1.93-1,2.39a4.19,4.19,0,0,0-.39,1.16c-.2.91-.26,1.3-.48,1.3s-.18-.39-.27-.48c-.41-.82-1.17-3.14-1.27-3.38a6,6,0,0,0-.5,1.27,27.28,27.28,0,0,1-1.42,3c-.31,0-.32-.38-.41-.72a28.3,28.3,0,0,1-1.42-4.09c.06-.13.14-.2.22-.2.24.11.26.86.38,1l.57,1.73a15.84,15.84,0,0,0,.66,1.69c.35-.48.87-2,1.06-2.36s.39-1.26.51-1.49v-.1a1.54,1.54,0,0,1,.14-.63l.27,0,.07,0a38.14,38.14,0,0,0,1.4,4c.13-.28.34-1.14.38-1.25a24,24,0,0,0,1.09-2.8A.19.19,0,0,1,29.6,13.52Z"/><path class="cls-2" d="M31,18.48c-.32,0-.31,0-1.06-.43a2.81,2.81,0,0,1-.42-1.57A3.65,3.65,0,0,1,30,14.59,2,2,0,0,1,31.31,14l.67.3A3.73,3.73,0,0,1,32.9,16a2.68,2.68,0,0,1-1.66,2.44A1.35,1.35,0,0,1,31,18.48Zm-1.08-2.06c0,.85.26,1.73,1.08,1.73s1.52-1.27,1.52-2a2.3,2.3,0,0,0-.07-.58s-.15-.21-.42-.63a1,1,0,0,0-1-.5,1,1,0,0,0-.3,0C30.23,14.63,29.88,15.51,29.88,16.42Z"/><path class="cls-2" d="M33.34,17.16s0,0,0,0c0-1,0-.43,0-.82v-.18c0-.26-.09-1.56-.09-2.22,0-1.25.13-1.11.17-1.11s.19.17.19.32,0,.32,0,.42a.81.81,0,0,0,0,.16,3.47,3.47,0,0,1,1.09-.29,1.78,1.78,0,0,1,1.67,1.07,6.33,6.33,0,0,1,.08.64c0,.56-.55,1-1.29,1.4.11.27.62.95.69,1.1A9.24,9.24,0,0,1,36.72,19a.5.5,0,0,1,.22.44.17.17,0,0,1-.16.18.19.19,0,0,1-.11,0,13.91,13.91,0,0,0-1.9-2.87l-1,.29a.39.39,0,0,0-.05.2,4.18,4.18,0,0,1,0,.43.28.28,0,0,1,0,.1,3.1,3.1,0,0,1,.05.63v.3a2.67,2.67,0,0,0,.08.71c0,.14-.06.29-.19.29s-.13-.07-.2-.2a2.81,2.81,0,0,0,0-.29c0-.43,0-1-.08-1.57A1.39,1.39,0,0,0,33.34,17.16Zm1.39-3.43a1.85,1.85,0,0,0-1.12.45c0,.2,0,.45,0,.73v.63a9.43,9.43,0,0,0,.06,1,3.26,3.26,0,0,0,2.35-1.32,1.23,1.23,0,0,0,0-.2,1.5,1.5,0,0,0-.36-.94l-.52-.3A1.22,1.22,0,0,0,34.73,13.73Z"/><path class="cls-2" d="M36.74,15.82a10.5,10.5,0,0,0,.14-1.18v-.46c0-.25,0-.63.11-.63s.23.28.23.64,0,.5,0,.67a2.36,2.36,0,0,0,0,.3,6.88,6.88,0,0,0,1.64-1.3h.06a.19.19,0,0,1,.2.15c-.14.36-.64.7-1.08,1.05.3.74,1.35,2.49,1.42,2.63s.32.61.32.73a.27.27,0,0,1-.08.19H39.5A8.2,8.2,0,0,0,38.69,17a12.91,12.91,0,0,0-1-1.57.78.78,0,0,0-.59.43c0,.15,0,.31,0,.48s0,1.29,0,1.59,0,.64,0,.92a.19.19,0,0,1-.16.08h-.1l-.08-.13V15.93S36.74,15.89,36.74,15.82Z"/><path class="cls-2" d="M41,20.07c-.19.13-.59.38-1.19.73-.08,0-.12-.06-.13-.09,0-.63.73-.55,1.12-.9A2.83,2.83,0,0,0,42,17.93a2.33,2.33,0,0,0-.4-1A6.21,6.21,0,0,1,40.1,13.8a1.76,1.76,0,0,1,1.55-1.74c.47.1.94.16,1.16.48v.15a.11.11,0,0,1-.12.11.17.17,0,0,1-.14-.08,1.17,1.17,0,0,0-.84-.28.93.93,0,0,0-.59.19,1.32,1.32,0,0,0-.66,1.29,3.91,3.91,0,0,0,0,.46,12.19,12.19,0,0,0,1.64,2.78,2.43,2.43,0,0,1,.16.87,1.77,1.77,0,0,1-.28,1A4,4,0,0,1,41,20.07Z"/></g></g></svg>